<svg id="icon_back-end" data-name="icon back-end" xmlns="http://www.w3.org/2000/svg" width="85" height="58.727" viewBox="0 0 85 58.727">
  <g id="Rectangle_63" data-name="Rectangle 63" transform="translate(7)" fill="none" stroke="#328cc1" stroke-width="1">
    <path d="M5,0H67a5,5,0,0,1,5,5V49.727a3,3,0,0,1-3,3H3a3,3,0,0,1-3-3V5A5,5,0,0,1,5,0Z" stroke="none"/>
    <path d="M5,.5H67A4.5,4.5,0,0,1,71.5,5V49.727a2.5,2.5,0,0,1-2.5,2.5H3a2.5,2.5,0,0,1-2.5-2.5V5A4.5,4.5,0,0,1,5,.5Z" fill="none"/>
  </g>
  <g id="Rectangle_64" data-name="Rectangle 64" transform="translate(0 51.727)" fill="none" stroke="#328cc1" stroke-width="1">
    <path d="M0,0H85a0,0,0,0,1,0,0V2a5,5,0,0,1-5,5H5A5,5,0,0,1,0,2V0A0,0,0,0,1,0,0Z" stroke="none"/>
    <path d="M1,.5H84a.5.5,0,0,1,.5.5V2A4.5,4.5,0,0,1,80,6.5H5A4.5,4.5,0,0,1,.5,2V1A.5.5,0,0,1,1,.5Z" fill="none"/>
  </g>
  <g id="Rectangle_65" data-name="Rectangle 65" transform="translate(11 5)" fill="none" stroke="#328cc1" stroke-width="1">
    <rect width="64" height="43.727" rx="2" stroke="none"/>
    <rect x="0.5" y="0.5" width="63" height="42.727" rx="1.5" fill="none"/>
  </g>
  <g id="Rectangle_66" data-name="Rectangle 66" transform="translate(35.5 51.727)" fill="none" stroke="#328cc1" stroke-width="1">
    <path d="M0,0H14a0,0,0,0,1,0,0V0a4,4,0,0,1-4,4H4A4,4,0,0,1,0,0V0A0,0,0,0,1,0,0Z" stroke="none"/>
    <path d="M.65.5h12.7a.15.15,0,0,1,.15.15v0A2.85,2.85,0,0,1,10.65,3.5H3.35A2.85,2.85,0,0,1,.5.65v0A.15.15,0,0,1,.65.5Z" fill="none"/>
  </g>
</svg>
